<svg width="43" height="43" viewBox="0 0 43 43" fill="none" xmlns="http://www.w3.org/2000/svg">
<g clip-path="url(#clip0_2003_495)">
<path d="M29.8924 0.975586C29.9896 0.975586 30.0869 0.975586 30.1896 0.975586C30.4282 3.9225 29.3034 6.12442 27.9363 7.71898C26.595 9.30254 24.7582 10.8384 21.7874 10.6053C21.5893 7.70063 22.7159 5.66202 24.0811 4.07113C25.3472 2.5885 27.6684 1.26918 29.8924 0.975586Z" fill="black"/>
<path d="M38.8854 31.6475C38.8854 31.6769 38.8854 31.7026 38.8854 31.7301C38.0505 34.2587 36.8596 36.4257 35.4064 38.4368C34.0797 40.2626 32.4539 42.7196 29.5511 42.7196C27.0427 42.7196 25.3766 41.1066 22.8058 41.0626C20.0865 41.0186 18.591 42.4113 16.1046 42.7618C15.8202 42.7618 15.5358 42.7618 15.2569 42.7618C13.4311 42.4975 11.9577 41.0516 10.8842 39.7488C7.71897 35.8991 5.273 30.9264 4.81793 24.5628C4.81793 23.939 4.81793 23.3169 4.81793 22.693C5.0106 18.1387 7.22354 14.4358 10.1649 12.6412C11.7173 11.6871 13.8513 10.8742 16.2276 11.2375C17.246 11.3953 18.2864 11.744 19.1983 12.0889C20.0626 12.4211 21.1434 13.0101 22.1673 12.9789C22.8609 12.9587 23.5508 12.5972 24.2499 12.3422C26.2977 11.6027 28.3051 10.7549 30.9511 11.1531C34.1311 11.6339 36.388 13.0468 37.7826 15.2267C35.0926 16.9387 32.9659 19.5186 33.3292 23.9243C33.6522 27.9263 35.9789 30.2677 38.8854 31.6475Z" fill="black"/>
</g>
<defs>
<clipPath id="clip0_2003_495">
<rect width="41.787" height="41.787" fill="white" transform="translate(0.957153 0.975586)"/>
</clipPath>
</defs>
</svg>
