<svg width="42" height="43" viewBox="0 0 42 43" fill="none" xmlns="http://www.w3.org/2000/svg">
<g clip-path="url(#clip0_2003_605)">
<path d="M17.4868 42.5537C7.56235 40.7777 0.0406797 32.2114 0.0406798 21.8691C0.0406799 10.3777 9.44277 0.975586 20.9342 0.975586C32.4256 0.975586 41.8277 10.3777 41.8277 21.8691C41.8277 32.2114 34.3061 40.7777 24.3816 42.5537L23.2325 41.6135L18.6359 41.6135L17.4868 42.5537Z" fill="url(#paint0_linear_2003_605)"/>
<path d="M29.0827 27.7188L30.0229 21.8686L24.4861 21.8686L24.4861 17.7943C24.4861 16.1229 25.1129 14.8693 27.6201 14.8693L30.3363 14.8693L30.3363 9.54141C28.8737 9.33247 27.2022 9.12354 25.7397 9.12354C20.9342 9.12354 17.5912 12.0486 17.5912 17.272L17.5912 21.8686L12.3678 21.8686L12.3678 27.7188L17.5912 27.7188L17.5912 42.4487C18.7404 42.6576 19.8895 42.7621 21.0387 42.7621C22.1878 42.7621 23.3369 42.6576 24.4861 42.4487L24.4861 27.7188L29.0827 27.7188Z" fill="white"/>
</g>
<defs>
<linearGradient id="paint0_linear_2003_605" x1="20.9352" y1="41.3094" x2="20.9352" y2="0.967889" gradientUnits="userSpaceOnUse">
<stop stop-color="#0062E0"/>
<stop offset="1" stop-color="#19AFFF"/>
</linearGradient>
<clipPath id="clip0_2003_605">
<rect width="41.787" height="41.787" fill="white" transform="translate(0.0406799 0.975586)"/>
</clipPath>
</defs>
</svg>
