<svg width="42" height="43" viewBox="0 0 42 43" fill="none" xmlns="http://www.w3.org/2000/svg">
<path d="M39.3014 22.2752C39.3014 20.772 39.177 19.6751 38.9076 18.5376L21.3927 18.5376L21.3927 25.3221L31.6735 25.3221C31.4664 27.0082 30.3471 29.5473 27.8597 31.2535L27.8248 31.4807L33.3627 35.685L33.7464 35.7225C37.27 32.5333 39.3014 27.841 39.3014 22.2752" fill="#4285F4"/>
<path d="M21.3915 40.1511C26.4282 40.1511 30.6566 38.526 33.7452 35.7228L27.8585 31.2538C26.2832 32.3304 24.1689 33.082 21.3915 33.082C16.4584 33.082 12.2714 29.8929 10.7789 25.4849L10.5601 25.5031L4.80176 29.8704L4.72645 30.0756C7.79411 36.0477 14.0953 40.1511 21.3915 40.1511Z" fill="#34A853"/>
<path d="M10.78 25.485C10.3862 24.3475 10.1582 23.1286 10.1582 21.8692C10.1582 20.6098 10.3862 19.391 10.7593 18.2535L10.7488 18.0112L4.91829 13.5737L4.72753 13.6627C3.46319 16.1409 2.73772 18.9238 2.73772 21.8692C2.73772 24.8146 3.46319 27.5975 4.72753 30.0757L10.78 25.485" fill="#FBBC05"/>
<path d="M21.3916 10.6558C24.8945 10.6558 27.2574 12.1387 28.6048 13.3779L33.8696 8.34019C30.6362 5.39479 26.4284 3.58691 21.3916 3.58691C14.0954 3.58691 7.79413 7.69014 4.72645 13.6622L10.7582 18.253C12.2715 13.845 16.4584 10.6558 21.3916 10.6558" fill="#EB4335"/>
</svg>
